<?xml version="1.0" standalone="no"?><!DOCTYPE svg PUBLIC "-//W3C//DTD SVG 1.1//EN" "http://www.w3.org/Graphics/SVG/1.1/DTD/svg11.dtd"><svg t="1683392552072" class="icon" viewBox="0 0 1410 1024" version="1.1" xmlns="http://www.w3.org/2000/svg" p-id="2842" xmlns:xlink="http://www.w3.org/1999/xlink" width="275.390625" height="200"><path d="M1172.721293 389.121638a503.740776 503.740776 0 0 1 202.771359 54.460029l3.361492 1.719384a57.956753 57.956753 0 0 1-52.740645 103.220976l-3.342173-1.738702a387.827271 387.827271 0 0 0-140.023515-40.724279v27.297631c6.336605 15.203988 11.340205 31.103457 14.914205 47.524537a555.322286 555.322286 0 0 1 178.951133 150.938704l0.521611 0.676162a57.956753 57.956753 0 1 1-91.726221 70.861789l-0.52161-0.676162a439.389462 439.389462 0 0 0-91.088697-88.055626 277.941267 277.941267 0 0 1-176.51695 187.470776A486.17988 486.17988 0 0 1 694.693996 1023.902633a486.17988 486.17988 0 0 1-322.567967-121.805776 278.037862 278.037862 0 0 1-172.517934-174.430507A439.370143 439.370143 0 0 0 125.732554 802.701026l-0.521611 0.676162a57.956753 57.956753 0 1 1-91.726221-70.861789l0.521611-0.676163a555.322286 555.322286 0 0 1 155.188865-137.550693 275.294576 275.294576 0 0 1 17.464302-60.912547V508.6671c-41.207251 6.182054-81.332643 19.009815-118.811344 38.154863l-3.361491 1.719383a57.956753 57.956753 0 1 1-52.740645-103.220976l3.38081-1.738703a503.740776 503.740776 0 0 1 181.250085-52.83724 484.325264 484.325264 0 0 1 26.486236-87.476059 438.945127 438.945127 0 0 0-165.254021-38.096905h-0.115913a57.956753 57.956753 0 0 1 3.709232-115.855549h0.135232a554.858632 554.858632 0 0 1 218.11058 52.392905C388.180049 79.478027 532.163942 0 694.732634 0c165.949502 0 312.541449 82.8202 400.712989 209.378429a554.858632 554.858632 0 0 1 233.855497-60.081834h0.135233a57.956753 57.956753 0 0 1 3.728551 115.855549h-0.135233a438.945127 438.945127 0 0 0-183.085382 46.558591 484.325264 484.325264 0 0 1 22.796323 77.410903z m-710.472514 56.41124c-106.698382 0-193.189176 86.510113-193.189176 193.189176 0 106.698382 86.490794 193.189176 193.189176 193.189176s193.189176-86.490794 193.189176-193.189176c0-106.679063-86.490794-193.189176-193.189176-193.189176z m463.654023 0c-106.698382 0-193.189176 86.510113-193.189176 193.189176 0 106.698382 86.490794 193.189176 193.189176 193.189176s193.189176-86.490794 193.189176-193.189176c0-106.679063-86.490794-193.189176-193.189176-193.189176z m9.659459 173.870258a86.935129 86.935129 0 1 1 0 173.870258 86.935129 86.935129 0 0 1 0-173.870258z m-463.654023 0a86.935129 86.935129 0 1 1 0 173.870258 86.935129 86.935129 0 0 1 0-173.870258z" fill="#1296db" p-id="2843"></path></svg>