<?xml version="1.0" standalone="no"?><!DOCTYPE svg PUBLIC "-//W3C//DTD SVG 1.1//EN" "http://www.w3.org/Graphics/SVG/1.1/DTD/svg11.dtd"><svg t="1732102598674" class="icon" viewBox="0 0 1024 1024" version="1.1" xmlns="http://www.w3.org/2000/svg" p-id="22035" xmlns:xlink="http://www.w3.org/1999/xlink" width="48" height="48"><path d="M255.71225189 296.40807002l-67.59015079-43.88259984c-22.48755179-6.47808554-96.66459885-0.29565746-116.73413431 13.76950386-20.05414809 14.05966581-32.37943673 32.28601339-27.35765648 40.49517879 5.01188838 8.2245528 51.92799959-17.07339342 70.1345634-20.91364297 18.18787913-3.82596127 51.46967559-1.68162044 73.95722739 4.78657322l44.6365813 29.45253789c4.87669929 4.90857314 9.88419127 9.19505661 14.7257194 12.71876584-23.90868593 42.26033071-37.53091061 90.84817048-37.5309106 142.54865675 0 1.90034101 0.03627024 3.79188924 0.07363958 5.68343745-7.91460707-5.43284303-15.51267381-9.48082218-21.27414722-10.66455108-21.20820133-4.37990684-56.93768978-2.54001623-79.39776414 4.06226741l-69.82571677 46.22587749c-18.04169907 18.63301395-27.56978246 39.10042301-21.17742657 45.48288702l11.62076662 11.60977562s14.75539506-15.24779111 32.80039141-33.88520144l46.58088623-31.30012218c22.46007433-6.60008547 86.48914653-2.81808812 102.95363948 8.39491304 0.46381949 0.31544123 0.92873809 0.62428784 1.39475579 0.92544077 6.20001366 38.22114436 19.89697704 74.00558772 39.59391815 105.85635818-8.36523738 3.56657407-18.71434723 8.44876884-29.14918675 13.84204434L104.80165507 778.98477649c-11.38006409 26.05962135-14.14539547 48.49881282-6.15714884 49.86169474 7.99594034 1.34859366 14.53447628 2.45538567 14.53447629 2.44549378 0 0 9.31485833-21.31811118 20.69602151-47.3909217l90.27114387-104.14396296c21.39944445-11.0426409 48.44056061-19.7167249 52.08517067-19.2616982 0.18025211 0.02308106 0.36270246 0.02418017 0.54405367 0.00549549 55.39015933 67.112043 140.23725296 110.05931017 235.37190694 110.05931015 95.1148702 0 179.95756743-42.94506896 235.34662765-110.05931015 0.18135122 0.01868468 0.36380154 0.01758556 0.54625189-0.00549549 3.64461005-0.45502671 30.68572622 8.21905728 52.08517066 19.2616982l90.27114386 104.14396296c11.38226228 26.07281052 20.69602153 47.39092171 20.69602153 47.3909217 0 0.01099098 6.53853595-1.09690013 14.53447628-2.44549378 7.98934575-1.36398102 5.22401434-23.80317248-6.15604973-49.86169474L800.12642849 641.61836837c-10.43483953-5.3932755-20.78504848-10.27656938-29.15028586-13.84314345 19.69584204-31.85186955 33.3939045-67.63411471 39.59501724-105.85525906 0.4660177-0.30225205 0.92983718-0.60999957 1.39475579-0.92544078 16.46449296-11.21300114 80.49356516-14.9949985 102.95363949-8.39491303l46.58088624 31.30012218c18.04389725 18.63741035 32.7992923 33.88520146 32.7992923 33.88520144l11.62076662-11.60977563c6.39345496-6.38246398-3.13572753-26.84987305-21.17632749-45.482887l-69.82571678-46.22587748c-22.46007433-6.60338276-58.18956278-8.44327336-79.3977641-4.06226744-5.76037434 1.18262981-13.36063928 5.23170805-21.27414725 10.66455107 0.03736934-1.89154822 0.07363958-3.78309644 0.07363959-5.68343743 0-51.70048624-13.62442287-100.28722692-37.5320097-142.54755766 4.84152813-3.52370925 9.85011922-7.81019272 14.72681851-12.71986495l44.63658129-29.45253787c22.48755179-6.46819367 55.76934826-8.61253449 73.95722739-4.78657323 18.20656381 3.84024957 65.12267503 29.13819577 70.1345634 20.913643 5.02068116-8.2102645-7.30460748-26.43551299-27.35765647-40.49517881-20.06953546-14.06516131-94.24658251-20.2475894-116.73413432-13.76950386l-67.59124989 43.88259984a129.02095452 129.02095452 0 0 0-8.79498481 9.79076791c-54.64387157-76.17630691-145.17440265-125.99074042-247.6180605-125.99074044-102.46344162 0-192.99836909 49.81443352-247.64224066 125.98964134a127.89547784 127.89547784 0 0 0-8.79278663-9.79186701z m318.91217264 273.91398801c22.69967777 0 41.11397116 15.74348444 41.11397115 35.17774108 0 19.44414851-18.41539249 35.18873207-41.11397115 35.18873207-22.66120933 0-41.0820973-15.74348444-41.0820973-35.18873207-0.00109908-19.43425663 18.41978887-35.17774109 41.0820973-35.17774108z m-120.8909242 0c22.69747957 0 41.06780904 15.74348444 41.06780904 35.17774108 0 19.44414851-18.37032945 35.18873207-41.06780904 35.18873207-22.71726334 0-41.10627746-15.74348444-41.10627745-35.18873207 0-19.43425663 18.39011322-35.17774109 41.10627745-35.17774108z m-19.74969784-63.99060376c43.42317675 0 78.65587275 35.65914616 78.65587274 79.64506125 0 43.9760232-35.23269599 79.62857476-78.65587274 79.62857476-43.48692444 0-78.71082765-35.65255157-78.71082766-79.62857476 0-43.98591508 35.22390321-79.64506123 78.71082766-79.64506125z m159.06480731 0c43.46933887 0 78.6789538 35.65914616 78.6789538 79.64506125 0 43.9760232-35.20961493 79.62857476-78.6789538 79.62857476-43.44735691 0-78.69104389-35.65255157-78.69104388-79.62857476 0-43.98591508 35.24368698-79.64506123 78.69104388-79.64506125z" p-id="22036" fill="#1296db"></path></svg>