<?xml version="1.0" standalone="no"?><!DOCTYPE svg PUBLIC "-//W3C//DTD SVG 1.1//EN" "http://www.w3.org/Graphics/SVG/1.1/DTD/svg11.dtd"><svg t="1732092010621" class="icon" viewBox="0 0 1024 1024" version="1.1" xmlns="http://www.w3.org/2000/svg" p-id="4150" width="64" height="64" xmlns:xlink="http://www.w3.org/1999/xlink"><path d="M0 0h1024v1024H0z" fill="#1296db" fill-opacity="0" p-id="4151"></path><path d="M720.7168 633.3952L829.44 919.808l-187.3664 83.3536 129.1776-119.2832-69.2992-202.112a190.7328 190.7328 0 0 0 18.7648-48.384z m1.3056-83.2384l223.4624 160.064 5.12 163.1872-41.3824-149.1712-184.0384-118.6048a194.496 194.496 0 0 0-3.1616-55.4752zM546.7136 12.8l0.0128 410.0864c85.9136 6.528 153.6 78.3232 153.6 165.9136 0 91.904-74.5088 166.4-166.4 166.4-91.904 0-166.4-74.496-166.4-166.4 0-87.6032 67.6736-159.3856 153.6-165.9136V12.8h25.6zM222.7328 494.3104l119.9616 77.1712a194.4576 194.4576 0 0 0-0.3584 30.0288l-103.7184-50.816L67.2 718.6432l155.5328-224.3456z m406.2208 108.544l-74.56 7.68 11.3152 78.8992 63.232-86.5664zM426.5984 588.8l65.8176 87.5776 8.256-80.32L426.5984 588.8z m524.8384-102.6304l-0.0128 24.5248 4.8896 146.3552-44.6208-138.112H712.8064c-4.4928-11.52-10.0736-22.4896-16.6016-32.7936l255.232 0.0256z m-677.504-119.8592l93.5936 126.6304a190.912 190.912 0 0 0-17.4464 40.32l-80.768-106.8672-169.536 80L273.92 366.3232z m102.7328-126.2592l39.296 197.248c-6.464 5.0304-12.5824 10.4704-18.3424 16.2688L350.208 289.9968l-146.6112 58.3936 138.4192-86.656-0.1664-0.576 34.816-21.1072z m389.888 49.7536L851.8912 422.4l-89.5104-82.88-121.5616 89.7664a191.5008 191.5008 0 0 0-34.56-18.3936l160.2944-121.088z m-434.6368-108.48L492.416 230.4l-14.6944 174.7584c-7.5008 2.2912-14.8096 5.0304-21.888 8.192v-164.992l-123.9168-67.0336z" fill="#1296db" p-id="4152"></path></svg>